<svg width="24" height="24" viewBox="0 0 24 24" fill="none" xmlns="http://www.w3.org/2000/svg">
<path d="M8.84 10.835H6.875V8.976H8.658C10.536 8.976 10.304 10.835 8.84 10.835ZM14.629 11.893H17.253C17.138 10.206 14.893 10.083 14.629 11.893ZM8.729 12.289H6.875V14.236H8.699C10.481 14.235 10.372 12.289 8.729 12.289ZM24 12C24 18.627 18.627 24 12 24C5.373 24 0 18.627 0 12C0 5.373 5.373 0 12 0C18.627 0 24 5.373 24 12V12ZM10.643 11.267C12.311 10.414 12.25 7.286 9.056 7.239H5V15.969H8.771C12.729 15.969 12.662 12.002 10.643 11.267ZM14 8.101H18V7.226H14V8.101ZM18.943 11.794C18.398 8.289 12.89 8.083 12.89 12.666C12.89 17.192 18.07 16.484 18.839 14.226H16.991C16.346 14.974 14.483 14.757 14.587 13.042H18.997C19.006 12.487 18.988 12.089 18.943 11.794V11.794Z" fill="white"/>
</svg>
