<svg width="24" height="24" viewBox="0 0 24 24" fill="none" xmlns="http://www.w3.org/2000/svg">
<path fill-rule="evenodd" clip-rule="evenodd" d="M12 0C5.37258 0 0 5.37258 0 12C0 18.6274 5.37258 24 12 24C18.6274 24 24 18.6274 24 12C24 5.37258 18.6274 0 12 0ZM14.8555 9.84726C15.5369 12.5636 15.5692 12.6696 15.6396 12.4139C15.68 12.2673 16.0031 10.9848 16.3578 9.56392L17.0026 6.98059H18.0276C18.5913 6.98059 19.0526 6.99572 19.0526 7.01426C19.0526 7.03279 18.4939 9.28279 17.8109 12.0143L16.5693 16.9806H14.5517L13.3251 12.0639C12.6504 9.35979 12.0846 7.10899 12.0677 7.06219C12.0435 6.99499 12.2587 6.98099 13.0909 6.99552L14.1447 7.01392L14.8555 9.84726ZM9.26461 7.22633C10.1047 7.62159 10.7562 8.40365 10.948 9.24692C10.9611 9.30438 10.9736 9.35737 10.9851 9.40623C11.0465 9.66605 11.0803 9.80936 11.024 9.88783C10.955 9.98402 10.7507 9.98315 10.296 9.98121L10.291 9.98119C10.2226 9.9809 10.1483 9.98059 10.0683 9.98059H9.08388L8.96575 9.64799C8.67961 8.84233 7.63054 8.73352 7.18561 9.46332C7.06015 9.66906 7.05308 9.80313 7.05288 11.9874C7.05261 14.2749 7.05388 14.2961 7.20395 14.5207C7.47861 14.9319 8.03828 15.0949 8.44801 14.883C8.70168 14.7518 8.96475 14.4289 9.01894 14.1822L9.06321 13.9806H10.0579C10.9998 13.9806 11.0526 13.9875 11.0526 14.1107C11.0526 14.423 10.8871 14.981 10.6718 15.3945C10.018 16.6503 8.53248 17.2688 7.17628 16.8497C6.20528 16.5496 5.50961 15.8747 5.18841 14.9213C5.06115 14.5435 5.05261 14.3573 5.05261 11.9598C5.05261 9.57326 5.06161 9.37539 5.18621 9.01305C5.49795 8.10706 6.10881 7.47919 7.01361 7.13473C7.36061 7.00265 7.52047 6.98299 8.11928 6.99852C8.74428 7.01486 8.86694 7.03926 9.26461 7.22633Z" fill="white"/>
</svg>
