<svg width="24" height="24" viewBox="0 0 24 24" fill="none" xmlns="http://www.w3.org/2000/svg">
<path fill-rule="evenodd" clip-rule="evenodd" d="M11.0694 0.0300885C7.34208 0.332417 4.04444 2.27967 1.97033 5.40301C1.1455 6.64515 0.531989 8.13138 0.240492 9.59378C-0.46429 13.1295 0.394357 16.6932 2.62746 19.5007C3.03955 20.0188 3.97885 20.9581 4.49697 21.3702C6.64894 23.0819 9.26824 24 11.9995 24C14.732 24 17.3492 23.0826 19.5021 21.3702C20.0202 20.9581 20.9595 20.0188 21.3716 19.5007C23.4287 16.9145 24.3257 13.675 23.8935 10.3928C23.4418 6.96218 21.4996 3.88252 18.5706 1.95267C16.6168 0.665349 14.2923 -0.0178291 11.9277 0.000353757C11.6289 0.00266412 11.2427 0.0160463 11.0694 0.0300885ZM6.77871 8.21557V10.2539L7.00261 10.0329C7.27658 9.7625 7.701 9.47823 8.00687 9.36025C8.71759 9.08619 9.62052 9.12559 10.2829 9.45963C10.7431 9.69169 11.0047 9.95093 11.2193 10.3876C11.5016 10.9621 11.5195 11.1983 11.5195 14.3551V16.8589H10.5473H9.57516L9.56063 14.391C9.54518 11.7621 9.53729 11.6132 9.39717 11.299C9.14561 10.7348 8.35348 10.5418 7.658 10.8751C7.15983 11.1139 6.90461 11.5508 6.80977 12.3274C6.79104 12.4807 6.77871 13.43 6.77871 14.7202V16.8589H5.78855H4.7984V11.518V6.17717H5.78855H6.77871V8.21557ZM14.4299 8.22256V10.268L14.6475 10.0577C15.0667 9.65265 15.4375 9.42554 15.9215 9.27735C16.1639 9.20318 16.2265 9.19667 16.6953 9.19691C17.2941 9.19727 17.5146 9.24374 17.9555 9.46254C18.4217 9.69391 18.6802 9.95549 18.9043 10.4228C19.17 10.9769 19.1764 11.0613 19.192 14.1809L19.2054 16.8589H18.2129H17.2204V14.4723C17.2204 11.9922 17.2065 11.6435 17.0959 11.348C16.9133 10.8599 16.2982 10.6043 15.6654 10.7535C14.9981 10.9108 14.6404 11.3463 14.4976 12.175C14.4621 12.3814 14.4504 12.8772 14.4391 14.646L14.4249 16.8589H13.4523H12.4796V11.518V6.17717H13.4548H14.4299V8.22256Z" fill="white"/>
</svg>
