<svg width="24" height="24" viewBox="0 0 24 24" fill="none" xmlns="http://www.w3.org/2000/svg">
<path fill-rule="evenodd" clip-rule="evenodd" d="M24 12C24 18.6274 18.6274 24 12 24C5.37258 24 0 18.6274 0 12C0 5.37258 5.37258 0 12 0C18.6274 0 24 5.37258 24 12ZM7.33333 16.6667H9.66667V9.66667H7.33333V16.6667ZM7.21667 7.33333C7.21667 8.0485 7.79183 8.62717 8.5 8.62717C9.20817 8.62717 9.78333 8.0485 9.78333 7.33333C9.78333 6.61933 9.20933 6.0395 8.5 6.0395C7.79067 6.0395 7.21667 6.61933 7.21667 7.33333ZM15.5023 16.6667H17.8333V12.7478C17.8333 8.9165 14.184 9.0565 13.1667 10.9418V9.66667H10.8333V16.6667H13.1667V13.3288C13.1667 11.3198 15.5023 11.1343 15.5023 13.3288V16.6667Z" fill="white"/>
</svg>
