<svg width="192" height="16" viewBox="0 0 192 16" fill="none" xmlns="http://www.w3.org/2000/svg">
<path d="M61.0273 8.45677C61.0273 8.11546 60.9285 7.83229 60.7285 7.57498C60.5406 7.3325 60.2212 7.16316 59.9073 7.0905L59.9051 7.09025L48.7042 7.08083C48.6986 7.08083 48.6942 7.07635 48.6942 7.07083V2.82932C48.6942 2.8238 48.6986 2.81932 48.7042 2.81932H59.3053C59.3108 2.81932 59.3153 2.8238 59.3153 2.82932V4.2101C59.3153 4.21562 59.3198 4.2201 59.3253 4.2201H61.0173C61.0228 4.2201 61.0273 4.21562 61.0273 4.2101V2.84496C61.0273 2.32174 60.8576 1.89733 60.5019 1.52227C60.1461 1.16352 59.7494 1 59.2595 1H48.75C48.2582 1 47.866 1.16815 47.5228 1.52403C47.1545 1.90176 46.9822 2.32546 46.9822 2.84496V7.52582C46.9822 7.87947 47.0879 8.16461 47.2846 8.41C47.4828 8.66153 47.8023 8.82943 48.1021 8.90078L48.1044 8.90105L59.3053 8.91047C59.3108 8.91047 59.3153 8.91495 59.3153 8.92047V13.1707C59.3153 13.1762 59.3108 13.1807 59.3053 13.1807H48.7042C48.6986 13.1807 48.6942 13.1762 48.6942 13.1707V11.7812C48.6942 11.7757 48.6897 11.7712 48.6842 11.7712H46.9922C46.9866 11.7712 46.9822 11.7757 46.9822 11.7812V13.155C46.9822 13.682 47.1697 14.1129 47.5299 14.4747C47.8741 14.8353 48.2617 15 48.75 15H59.2595C59.7484 15 60.1456 14.8346 60.5037 14.4673C60.855 14.1069 61.0273 13.6884 61.0273 13.155V8.45677Z" fill="#333333"/>
<path fill-rule="evenodd" clip-rule="evenodd" d="M7.82729 15H9.67225C9.67614 15 9.67968 14.9977 9.68132 14.9942L11.2027 11.7257C11.2044 11.7222 11.2079 11.7199 11.2118 11.7199H20.2795C20.2833 11.7199 20.2868 11.7221 20.2885 11.7256L21.8607 14.9943C21.8624 14.9978 21.8659 15 21.8697 15H23.7057C23.713 15 23.7179 14.9924 23.7148 14.9858L17.1644 1.00576C17.1627 1.00224 17.1592 1 17.1553 1H14.1991C14.1951 1 14.1916 1.00229 14.19 1.00585L7.8182 14.9859C7.81518 14.9925 7.82002 15 7.82729 15ZM15.6549 2.19454L12.0578 9.88636C12.0547 9.89299 12.0595 9.90059 12.0669 9.90059H19.3772C19.3845 9.90059 19.3894 9.89289 19.3862 9.88625L15.673 2.19443C15.6693 2.18684 15.6585 2.18691 15.6549 2.19454Z" fill="#333333"/>
<path d="M2.71201 14.99V1.01C2.71201 1.00448 2.70753 1 2.70201 1H1.01C1.00448 1 1 1.00448 1 1.01V14.99C1 14.9955 1.00448 15 1.01 15H2.70201C2.70753 15 2.71201 14.9955 2.71201 14.99Z" fill="#333333"/>
<path d="M42.4258 8.92576V7.12644C42.4258 7.12092 42.4213 7.11644 42.4158 7.11644H28.8487C28.8431 7.11644 28.8387 7.12092 28.8387 7.12644V8.92576C28.8387 8.93128 28.8431 8.93576 28.8487 8.93576H42.4158C42.4213 8.93576 42.4258 8.93128 42.4258 8.92576Z" fill="#333333"/>
<path d="M65.5922 1.01V2.80932C65.5922 2.81484 65.5966 2.81932 65.6022 2.81932H71.5197C71.5252 2.81932 71.5297 2.8238 71.5297 2.82932V14.99C71.5297 14.9955 71.5342 15 71.5397 15H73.2232C73.2288 15 73.2332 14.9955 73.2332 14.99V2.82932C73.2332 2.8238 73.2377 2.81932 73.2432 2.81932H79.1608C79.1663 2.81932 79.1708 2.81484 79.1708 2.80932V1.01C79.1708 1.00448 79.1663 1 79.1608 1H65.6022C65.5966 1 65.5922 1.00448 65.5922 1.01Z" fill="#333333"/>
<path d="M97.3228 14.99V13.1907C97.3228 13.1852 97.3183 13.1807 97.3128 13.1807H85.4576C85.4521 13.1807 85.4476 13.1762 85.4476 13.1707V8.91966C85.4476 8.91414 85.4521 8.90966 85.4576 8.90966H97.3128C97.3183 8.90966 97.3228 8.90518 97.3228 8.89966V7.10034C97.3228 7.09482 97.3183 7.09034 97.3128 7.09034H85.4576C85.4521 7.09034 85.4476 7.08586 85.4476 7.08034V2.82932C85.4476 2.8238 85.4521 2.81932 85.4576 2.81932H97.3128C97.3183 2.81932 97.3228 2.81484 97.3228 2.80932V1.01C97.3228 1.00448 97.3183 1 97.3128 1H83.7456C83.7401 1 83.7356 1.00448 83.7356 1.01V14.99C83.7356 14.9955 83.7401 15 83.7456 15H97.3128C97.3183 15 97.3228 14.9955 97.3228 14.99Z" fill="#333333"/>
<path fill-rule="evenodd" clip-rule="evenodd" d="M101.889 15H103.581C103.587 15 103.591 14.9955 103.591 14.99V8.91966C103.591 8.91414 103.596 8.90966 103.601 8.90966H113.24C113.729 8.90966 114.127 8.74422 114.485 8.37693C114.845 8.00712 115.017 7.58714 115.017 7.0647V2.84496C115.017 2.32394 114.846 1.90011 114.484 1.52393C114.128 1.16403 113.731 1 113.24 1H101.889C101.884 1 101.879 1.00448 101.879 1.01V14.99C101.879 14.9955 101.884 15 101.889 15ZM103.591 2.82932V7.08034C103.591 7.08586 103.596 7.09034 103.601 7.09034H113.295C113.3 7.09034 113.305 7.08586 113.305 7.08034V2.82932C113.305 2.8238 113.3 2.81932 113.295 2.81932H103.601C103.596 2.81932 103.591 2.8238 103.591 2.82932Z" fill="#333333"/>
<path d="M116.314 15H118.161C118.164 15 118.168 14.9977 118.17 14.9942L124.141 2.19357C124.144 2.18594 124.155 2.18586 124.159 2.19345L130.347 14.9944C130.349 14.9978 130.352 15 130.356 15H132.193C132.201 15 132.206 14.9924 132.202 14.9858L125.652 1.00576C125.65 1.00224 125.647 1 125.643 1H122.679C122.675 1 122.671 1.00229 122.669 1.00586L116.305 14.9859C116.302 14.9925 116.307 15 116.314 15Z" fill="#333333"/>
<path d="M151.811 1H150.119C150.114 1 150.109 1.00448 150.109 1.01V13.0749C150.109 13.0843 150.097 13.0885 150.091 13.0813L140.023 1.0036C140.021 1.00132 140.018 1 140.015 1H137.336C137.331 1 137.326 1.00448 137.326 1.01V14.99C137.326 14.9955 137.331 15 137.336 15H139.028C139.034 15 139.038 14.9955 139.038 14.99V2.91467C139.038 2.90531 139.05 2.90108 139.056 2.90827L149.125 14.9964C149.127 14.9987 149.13 15 149.133 15H151.811C151.817 15 151.821 14.9955 151.821 14.99V1.01C151.821 1.00448 151.817 1 151.811 1Z" fill="#333333"/>
<path fill-rule="evenodd" clip-rule="evenodd" d="M156.386 13.155C156.386 13.6852 156.562 14.1062 156.918 14.4673C157.269 14.8313 157.665 15 158.154 15H168.205C168.694 15 169.091 14.8346 169.449 14.4673C169.801 14.1069 169.973 13.6884 169.973 13.155V2.84496C169.973 2.32179 169.803 1.89741 169.448 1.52238C169.092 1.16356 168.695 1 168.205 1H158.154C157.663 1 157.27 1.16412 156.92 1.52177C156.557 1.89849 156.386 2.32294 156.386 2.84496V13.155ZM158.098 2.82932V11.9192C158.098 11.9282 158.109 11.9326 158.115 11.9262L166.99 2.83631C166.996 2.82997 166.992 2.81932 166.983 2.81932H158.108C158.102 2.81932 158.098 2.8238 158.098 2.82932ZM168.261 13.1707V4.06698C168.261 4.05801 168.25 4.05358 168.244 4.06001L159.382 13.1637C159.376 13.17 159.38 13.1807 159.389 13.1807H168.251C168.257 13.1807 168.261 13.1762 168.261 13.1707Z" fill="#333333"/>
<path d="M190.984 1H189.139C189.135 1 189.131 1.00225 189.13 1.00577L183.159 13.7949C183.156 13.8026 183.145 13.8026 183.141 13.7951L176.944 1.00564C176.943 1.00219 176.939 1 176.935 1H175.098C175.09 1 175.085 1.00761 175.088 1.01424L181.639 14.9942C181.641 14.9978 181.644 15 181.648 15H184.613C184.617 15 184.62 14.9977 184.622 14.9941L190.994 1.01415C190.997 1.00753 190.992 1 190.984 1Z" fill="#333333"/>
<path d="M61.0273 8.45677C61.0273 8.11546 60.9285 7.83229 60.7285 7.57498C60.5406 7.3325 60.2212 7.16316 59.9073 7.0905L59.9051 7.09025L48.7042 7.08083C48.6986 7.08083 48.6942 7.07635 48.6942 7.07083V2.82932C48.6942 2.8238 48.6986 2.81932 48.7042 2.81932H59.3053C59.3108 2.81932 59.3153 2.8238 59.3153 2.82932V4.2101C59.3153 4.21562 59.3198 4.2201 59.3253 4.2201H61.0173C61.0228 4.2201 61.0273 4.21562 61.0273 4.2101V2.84496C61.0273 2.32174 60.8576 1.89733 60.5019 1.52227C60.1461 1.16352 59.7494 1 59.2595 1H48.75C48.2582 1 47.866 1.16815 47.5228 1.52403C47.1545 1.90176 46.9822 2.32546 46.9822 2.84496V7.52582C46.9822 7.87947 47.0879 8.16461 47.2846 8.41C47.4828 8.66153 47.8023 8.82943 48.1021 8.90078L48.1044 8.90105L59.3053 8.91047C59.3108 8.91047 59.3153 8.91495 59.3153 8.92047V13.1707C59.3153 13.1762 59.3108 13.1807 59.3053 13.1807H48.7042C48.6986 13.1807 48.6942 13.1762 48.6942 13.1707V11.7812C48.6942 11.7757 48.6897 11.7712 48.6842 11.7712H46.9922C46.9866 11.7712 46.9822 11.7757 46.9822 11.7812V13.155C46.9822 13.682 47.1697 14.1129 47.5299 14.4747C47.8741 14.8353 48.2617 15 48.75 15H59.2595C59.7484 15 60.1456 14.8346 60.5037 14.4673C60.855 14.1069 61.0273 13.6884 61.0273 13.155V8.45677Z" stroke="#333333" stroke-linecap="round" stroke-linejoin="round"/>
<path fill-rule="evenodd" clip-rule="evenodd" d="M7.82729 15H9.67225C9.67614 15 9.67968 14.9977 9.68132 14.9942L11.2027 11.7257C11.2044 11.7222 11.2079 11.7199 11.2118 11.7199H20.2795C20.2833 11.7199 20.2868 11.7221 20.2885 11.7256L21.8607 14.9943C21.8624 14.9978 21.8659 15 21.8697 15H23.7057C23.713 15 23.7179 14.9924 23.7148 14.9858L17.1644 1.00576C17.1627 1.00224 17.1592 1 17.1553 1H14.1991C14.1951 1 14.1916 1.00229 14.19 1.00585L7.8182 14.9859C7.81518 14.9925 7.82002 15 7.82729 15ZM15.6549 2.19454L12.0578 9.88636C12.0547 9.89299 12.0595 9.90059 12.0669 9.90059H19.3772C19.3845 9.90059 19.3894 9.89289 19.3862 9.88625L15.673 2.19443C15.6693 2.18684 15.6585 2.18691 15.6549 2.19454Z" stroke="#333333" stroke-linecap="round" stroke-linejoin="round"/>
<path d="M2.71201 14.99V1.01C2.71201 1.00448 2.70753 1 2.70201 1H1.01C1.00448 1 1 1.00448 1 1.01V14.99C1 14.9955 1.00448 15 1.01 15H2.70201C2.70753 15 2.71201 14.9955 2.71201 14.99Z" stroke="#333333" stroke-linecap="round" stroke-linejoin="round"/>
<path d="M42.4258 8.92576V7.12644C42.4258 7.12092 42.4213 7.11644 42.4158 7.11644H28.8487C28.8431 7.11644 28.8387 7.12092 28.8387 7.12644V8.92576C28.8387 8.93128 28.8431 8.93576 28.8487 8.93576H42.4158C42.4213 8.93576 42.4258 8.93128 42.4258 8.92576Z" stroke="#333333" stroke-linecap="round" stroke-linejoin="round"/>
<path d="M65.5922 1.01V2.80932C65.5922 2.81484 65.5966 2.81932 65.6022 2.81932H71.5197C71.5252 2.81932 71.5297 2.8238 71.5297 2.82932V14.99C71.5297 14.9955 71.5342 15 71.5397 15H73.2232C73.2288 15 73.2332 14.9955 73.2332 14.99V2.82932C73.2332 2.8238 73.2377 2.81932 73.2432 2.81932H79.1608C79.1663 2.81932 79.1708 2.81484 79.1708 2.80932V1.01C79.1708 1.00448 79.1663 1 79.1608 1H65.6022C65.5966 1 65.5922 1.00448 65.5922 1.01Z" stroke="#333333" stroke-linecap="round" stroke-linejoin="round"/>
<path d="M97.3228 14.99V13.1907C97.3228 13.1852 97.3183 13.1807 97.3128 13.1807H85.4576C85.4521 13.1807 85.4476 13.1762 85.4476 13.1707V8.91966C85.4476 8.91414 85.4521 8.90966 85.4576 8.90966H97.3128C97.3183 8.90966 97.3228 8.90518 97.3228 8.89966V7.10034C97.3228 7.09482 97.3183 7.09034 97.3128 7.09034H85.4576C85.4521 7.09034 85.4476 7.08586 85.4476 7.08034V2.82932C85.4476 2.8238 85.4521 2.81932 85.4576 2.81932H97.3128C97.3183 2.81932 97.3228 2.81484 97.3228 2.80932V1.01C97.3228 1.00448 97.3183 1 97.3128 1H83.7456C83.7401 1 83.7356 1.00448 83.7356 1.01V14.99C83.7356 14.9955 83.7401 15 83.7456 15H97.3128C97.3183 15 97.3228 14.9955 97.3228 14.99Z" stroke="#333333" stroke-linecap="round" stroke-linejoin="round"/>
<path fill-rule="evenodd" clip-rule="evenodd" d="M101.889 15H103.581C103.587 15 103.591 14.9955 103.591 14.99V8.91966C103.591 8.91414 103.596 8.90966 103.601 8.90966H113.24C113.729 8.90966 114.127 8.74422 114.485 8.37693C114.845 8.00712 115.017 7.58714 115.017 7.0647V2.84496C115.017 2.32394 114.846 1.90011 114.484 1.52393C114.128 1.16403 113.731 1 113.24 1H101.889C101.884 1 101.879 1.00448 101.879 1.01V14.99C101.879 14.9955 101.884 15 101.889 15ZM103.591 2.82932V7.08034C103.591 7.08586 103.596 7.09034 103.601 7.09034H113.295C113.3 7.09034 113.305 7.08586 113.305 7.08034V2.82932C113.305 2.8238 113.3 2.81932 113.295 2.81932H103.601C103.596 2.81932 103.591 2.8238 103.591 2.82932Z" stroke="#333333" stroke-linecap="round" stroke-linejoin="round"/>
<path d="M116.314 15H118.161C118.164 15 118.168 14.9977 118.17 14.9942L124.141 2.19357C124.144 2.18594 124.155 2.18586 124.159 2.19345L130.347 14.9944C130.349 14.9978 130.352 15 130.356 15H132.193C132.201 15 132.206 14.9924 132.202 14.9858L125.652 1.00576C125.65 1.00224 125.647 1 125.643 1H122.679C122.675 1 122.671 1.00229 122.669 1.00586L116.305 14.9859C116.302 14.9925 116.307 15 116.314 15Z" stroke="#333333" stroke-linecap="round" stroke-linejoin="round"/>
<path d="M151.811 1H150.119C150.114 1 150.109 1.00448 150.109 1.01V13.0749C150.109 13.0843 150.097 13.0885 150.091 13.0813L140.023 1.0036C140.021 1.00132 140.018 1 140.015 1H137.336C137.331 1 137.326 1.00448 137.326 1.01V14.99C137.326 14.9955 137.331 15 137.336 15H139.028C139.034 15 139.038 14.9955 139.038 14.99V2.91467C139.038 2.90531 139.05 2.90108 139.056 2.90827L149.125 14.9964C149.127 14.9987 149.13 15 149.133 15H151.811C151.817 15 151.821 14.9955 151.821 14.99V1.01C151.821 1.00448 151.817 1 151.811 1Z" stroke="#333333" stroke-linecap="round" stroke-linejoin="round"/>
<path fill-rule="evenodd" clip-rule="evenodd" d="M156.386 13.155C156.386 13.6852 156.562 14.1062 156.918 14.4673C157.269 14.8313 157.665 15 158.154 15H168.205C168.694 15 169.091 14.8346 169.449 14.4673C169.801 14.1069 169.973 13.6884 169.973 13.155V2.84496C169.973 2.32179 169.803 1.89741 169.448 1.52238C169.092 1.16356 168.695 1 168.205 1H158.154C157.663 1 157.27 1.16412 156.92 1.52177C156.557 1.89849 156.386 2.32294 156.386 2.84496V13.155ZM158.098 2.82932V11.9192C158.098 11.9282 158.109 11.9326 158.115 11.9262L166.99 2.83631C166.996 2.82997 166.992 2.81932 166.983 2.81932H158.108C158.102 2.81932 158.098 2.8238 158.098 2.82932ZM168.261 13.1707V4.06698C168.261 4.05801 168.25 4.05358 168.244 4.06001L159.382 13.1637C159.376 13.17 159.38 13.1807 159.389 13.1807H168.251C168.257 13.1807 168.261 13.1762 168.261 13.1707Z" stroke="#333333" stroke-linecap="round" stroke-linejoin="round"/>
<path d="M190.984 1H189.139C189.135 1 189.131 1.00225 189.13 1.00577L183.159 13.7949C183.156 13.8026 183.145 13.8026 183.141 13.7951L176.944 1.00564C176.943 1.00219 176.939 1 176.935 1H175.098C175.09 1 175.085 1.00761 175.088 1.01424L181.639 14.9942C181.641 14.9978 181.644 15 181.648 15H184.613C184.617 15 184.62 14.9977 184.622 14.9941L190.994 1.01415C190.997 1.00753 190.992 1 190.984 1Z" stroke="#333333" stroke-linecap="round" stroke-linejoin="round"/>
</svg>
