<svg width="192" height="16" viewBox="0 0 192 16" fill="none" xmlns="http://www.w3.org/2000/svg">
<path d="M47.1816 1.17595C47.6178 0.72415 48.1391 0.5 48.7678 0.5H59.2773C59.9016 0.5 60.4258 0.717536 60.8747 1.17018L60.8826 1.17812C61.3268 1.64648 61.5451 2.19429 61.5451 2.84496V4.2101C61.5451 4.49258 61.3159 4.7201 61.0351 4.7201H59.3431C59.062 4.7201 58.8331 4.49233 58.8331 4.2101V3.31932H49.212V6.58124L59.9524 6.57554L60.0126 6.5826L60.041 6.58937C60.4182 6.67912 60.8484 6.8938 61.1342 7.2554C61.4021 7.59031 61.5452 7.98558 61.5452 8.45074V13.1316C61.5452 13.7822 61.3214 14.3305 60.8635 14.8006C60.4274 15.2524 59.906 15.4766 59.2774 15.4766H48.7679C48.1436 15.4766 47.6194 15.259 47.1705 14.8064L47.1626 14.7984C46.7184 14.3301 46.5001 13.7823 46.5001 13.1316V11.7665C46.5001 11.484 46.7292 11.2565 47.0101 11.2565H48.7021C48.9831 11.2565 49.2121 11.4842 49.2121 11.7665V12.6572H58.8332V9.39532L48.0928 9.40102L48.0326 9.39397L48.0041 9.38719C47.627 9.29744 47.1968 9.08276 46.911 8.72116C46.6431 8.38625 46.5 7.99098 46.5 7.52582V2.84496C46.5 2.19439 46.7237 1.64605 47.1816 1.17595Z" fill="white"/>
<path d="M0.5 1.01C0.5 0.728338 0.728338 0.5 1.01 0.5H2.70201C2.98367 0.5 3.21201 0.728338 3.21201 1.01V14.99C3.21201 15.271 2.98434 15.5 2.70201 15.5H1.01C0.727672 15.5 0.5 15.271 0.5 14.99V1.01Z" fill="white"/>
<path d="M28.8486 6.61646C28.5643 6.61646 28.3386 6.84741 28.3386 7.12646V8.92578C28.3386 9.20489 28.5643 9.43577 28.8486 9.43577H42.4157C42.6965 9.43577 42.9257 9.20827 42.9257 8.92578V7.12646C42.9257 6.84402 42.6966 6.61646 42.4157 6.61646H28.8486Z" fill="white"/>
<path d="M65.6023 0.5C65.3181 0.5 65.0923 0.730812 65.0923 1.01V2.80932C65.0923 3.08851 65.3181 3.31932 65.6023 3.31932H71.0298V14.99C71.0298 15.2718 71.2583 15.5 71.5398 15.5H73.2233C73.5082 15.5 73.7333 15.2685 73.7333 14.99V3.31932H79.1609C79.4417 3.31932 79.6709 3.09177 79.6709 2.80932V1.01C79.6709 0.727548 79.4417 0.5 79.1609 0.5H65.6023Z" fill="white"/>
<path d="M83.2356 1.01C83.2356 0.728044 83.4642 0.5 83.7456 0.5H97.3128C97.5936 0.5 97.8228 0.727548 97.8228 1.01V2.80932C97.8228 3.09177 97.5936 3.31932 97.3128 3.31932H85.9476V6.59034H97.3128C97.5936 6.59034 97.8228 6.81787 97.8228 7.10034V8.89966C97.8228 9.1821 97.5937 9.40966 97.3128 9.40966H85.9476V12.6807H97.3128C97.5942 12.6807 97.8228 12.9089 97.8228 13.1907V14.99C97.8228 15.2718 97.5943 15.5 97.3128 15.5H83.7456C83.4636 15.5 83.2356 15.2713 83.2356 14.99V1.01Z" fill="white"/>
<path fill-rule="evenodd" clip-rule="evenodd" d="M101.889 0.5C101.625 0.5 101.379 0.711724 101.379 1.01V14.99C101.379 15.2876 101.624 15.5 101.889 15.5H103.581C103.879 15.5 104.091 15.2551 104.091 14.99V9.40966H113.24C113.866 9.40966 114.392 9.18836 114.843 8.72593C115.294 8.26279 115.517 7.71745 115.517 7.0647V2.84496C115.517 2.19437 115.296 1.64636 114.844 1.17723L114.839 1.17231C114.39 0.718257 113.866 0.5 113.24 0.5H101.889ZM104.091 6.59034V3.31932H112.805V6.59034H104.091Z" fill="white"/>
<path d="M122.233 0.761484C122.324 0.598022 122.496 0.5 122.679 0.5H125.643C125.871 0.5 126.02 0.641685 126.087 0.758755C126.093 0.770138 126.099 0.781771 126.105 0.793627L132.651 14.7665C132.731 14.929 132.717 15.1185 132.623 15.2656C132.525 15.4182 132.359 15.5 132.193 15.5H130.356C130.134 15.5 129.985 15.3647 129.916 15.2479C129.909 15.2362 129.903 15.2242 129.897 15.212L124.158 3.34007L118.623 15.2056C118.62 15.2119 118.617 15.2181 118.614 15.2242C118.611 15.2303 118.608 15.2363 118.604 15.2423C118.557 15.3249 118.493 15.3837 118.431 15.4227C118.373 15.4588 118.28 15.5 118.161 15.5H116.314C115.947 15.5 115.695 15.1202 115.85 14.779L122.214 0.798704C122.22 0.78604 122.226 0.773623 122.233 0.761484Z" fill="white"/>
<path d="M137.336 0.5C137.071 0.5 136.826 0.712195 136.826 1.01V14.99C136.826 15.2871 137.071 15.5 137.336 15.5H139.028C139.327 15.5 139.538 15.2546 139.538 14.99V4.26815L148.741 15.3164L148.748 15.3245C148.848 15.4405 148.991 15.5 149.133 15.5H151.811C152.11 15.5 152.321 15.2546 152.321 14.99V1.01C152.321 0.744735 152.109 0.5 151.811 0.5H150.119C149.855 0.5 149.609 0.711254 149.609 1.01V11.7222L140.407 0.683447L140.399 0.673881C140.3 0.560921 140.159 0.5 140.015 0.5H137.336Z" fill="white"/>
<path fill-rule="evenodd" clip-rule="evenodd" d="M156.563 1.17206C157.006 0.718734 157.528 0.5 158.154 0.5H168.205C168.829 0.5 169.354 0.717539 169.803 1.17022L169.811 1.17856C170.254 1.64663 170.473 2.19417 170.473 2.84496V13.155C170.473 13.8157 170.252 14.3606 169.807 14.8167C169.356 15.2786 168.831 15.5 168.205 15.5H158.154C157.527 15.5 157.003 15.2746 156.56 14.8164C156.112 14.3614 155.886 13.8146 155.886 13.155V2.84496C155.886 2.19354 156.107 1.64473 156.56 1.17483L156.563 1.17206ZM158.598 3.31932V10.7158L165.82 3.31932H158.598ZM167.761 5.273L160.55 12.6807H167.761V5.273Z" fill="white"/>
<path d="M175.098 0.5C174.763 0.5 174.465 0.850278 174.633 1.22036L174.635 1.2264L181.186 15.2064C181.191 15.2168 181.196 15.227 181.202 15.237C181.27 15.3589 181.42 15.5 181.648 15.5H184.613C184.849 15.5 184.996 15.3502 185.059 15.2369C185.066 15.2253 185.072 15.2135 185.077 15.2015L191.449 1.22053C191.619 0.846105 191.314 0.5 190.984 0.5H189.139C189.005 0.5 188.767 0.569063 188.668 0.812665L183.142 12.65L177.403 0.807108C177.302 0.562961 177.061 0.5 176.935 0.5H175.098Z" fill="white"/>
<path fill-rule="evenodd" clip-rule="evenodd" d="M14.2002 0.5C14.0175 0.5 13.8454 0.598145 13.7539 0.761475C13.747 0.773682 13.7409 0.786133 13.7351 0.798584L7.37106 14.7791C7.21578 15.1201 7.46847 15.5 7.83517 15.5H9.68209C9.7524 15.5 9.81368 15.4856 9.86373 15.4663C9.8984 15.4531 9.92794 15.4375 9.95162 15.4226C9.98067 15.4045 10.01 15.3823 10.0378 15.3552C10.07 15.324 10.1001 15.2866 10.1252 15.2422L10.135 15.2241L10.1442 15.2056L11.5376 12.2188H19.9712L21.4179 15.2119C21.4238 15.2241 21.4304 15.2363 21.4372 15.2478C21.5058 15.3647 21.6547 15.5 21.8772 15.5H23.7141C23.8017 15.5 23.8894 15.4773 23.967 15.4331C24.0363 15.3938 24.0976 15.3376 24.1438 15.2656C24.1889 15.1953 24.2158 15.1155 24.2229 15.0334C24.2304 14.9436 24.2143 14.8513 24.1726 14.7664L17.6259 0.793701C17.6203 0.781738 17.6142 0.77002 17.6079 0.758789C17.5412 0.641602 17.3923 0.5 17.164 0.5H14.2002ZM18.6076 9.39844L15.6792 3.34009L12.8532 9.39844H18.6076Z" fill="white"/>
</svg>
