<svg width="48" height="48" viewBox="0 0 48 48" fill="none" xmlns="http://www.w3.org/2000/svg">
<path fill-rule="evenodd" clip-rule="evenodd" d="M21.0645 0.038452C17.4123 0.588827 13.8601 1.86474 11.1474 3.60083C5.57602 7.16607 1.77719 12.6755 0.334122 19.2831C-0.111374 21.3231 -0.111374 26.6656 0.334122 28.7056C1.59215 34.4658 4.56684 39.2985 9.06944 42.8971C11.9121 45.1689 15.4572 46.8187 19.2967 47.6561C21.5435 48.1462 26.6947 48.1053 29.0482 47.5789C31.3394 47.0662 32.7823 46.5405 35.0124 45.406C41.5231 42.0935 46.0731 36.0989 47.6877 28.7056C47.9323 27.5855 48 26.564 48 23.9943C48 21.4247 47.9323 20.4032 47.6877 19.2831C46.0867 11.9524 41.5475 5.93156 35.1431 2.64394C31.3597 0.701729 28.9371 0.0985203 24.6002 0.0182608C22.9334 -0.0125306 21.3423 -0.00344452 21.0645 0.038452ZM28.8935 16.8433L33.6897 21.6387H30.0288H26.368V28.8738V36.109H24.0109H21.6538V28.8738V21.6387H17.993H14.3321L19.1283 16.8433C21.7662 14.2059 23.9634 12.0479 24.0109 12.0479C24.0584 12.0479 26.2556 14.2059 28.8935 16.8433Z" fill="#1D72C9"/>
</svg>
